G04*
G04 #@! TF.GenerationSoftware,Altium Limited,Altium Designer,23.11.1 (41)*
G04*
G04 Layer_Physical_Order=2*
G04 Layer_Color=16711680*
%FSLAX44Y44*%
%MOMM*%
G71*
G04*
G04 #@! TF.SameCoordinates,AAF1C5A6-5E74-48D9-B26A-DA526AD567C4*
G04*
G04*
G04 #@! TF.FilePolarity,Positive*
G04*
G01*
G75*
%ADD21R,1.5500X1.5500*%
%ADD22C,1.5500*%
%ADD25C,0.6350*%
%ADD26R,1.5240X1.5240*%
%ADD27C,1.5240*%
%ADD28C,1.0500*%
%ADD29R,1.0500X1.0500*%
%ADD30R,1.5240X1.5240*%
%ADD31C,1.2700*%
D21*
X584200Y736600D02*
D03*
X660400D02*
D03*
X622300D02*
D03*
X647700Y368400D02*
D03*
X609600D02*
D03*
X571500D02*
D03*
D22*
X584200Y825400D02*
D03*
X660400D02*
D03*
X622300D02*
D03*
X647700Y457200D02*
D03*
X609600D02*
D03*
X571500D02*
D03*
D25*
X539750Y660400D02*
X609600D01*
X527050Y673100D02*
X539750Y660400D01*
X482600Y673100D02*
X527050D01*
X330200Y749300D02*
X361696Y780796D01*
X596900Y647700D02*
X622554D01*
X635254Y660400D01*
X660400D01*
X596900Y673100D02*
X647700D01*
X596900Y876300D02*
X622554D01*
X635254Y889000D01*
X660400D01*
X596900Y901700D02*
X647700D01*
X330200Y393700D02*
X348700D01*
X355092Y400092D01*
X711200Y457200D02*
X723900D01*
X762000Y419100D01*
X711200Y508000D02*
X723900D01*
X762000Y546100D01*
X584200Y514400D02*
X609854D01*
X622554Y527100D01*
X647700D01*
X571500Y279400D02*
X607060D01*
X619760Y292100D01*
X647700D01*
X546150D02*
X584200D01*
X527050Y311200D02*
X546150Y292100D01*
X457200Y311200D02*
X527050D01*
X584200Y539800D02*
X635000D01*
X762000Y419100D02*
X787400D01*
X711200Y482600D02*
X762000D01*
X787400D01*
X762000Y546100D02*
X787400D01*
X571500Y304800D02*
X635000D01*
D26*
X279400Y838200D02*
D03*
X381000Y698500D02*
D03*
X533400Y762000D02*
D03*
X279400Y482600D02*
D03*
X520700Y387400D02*
D03*
X711200Y457200D02*
D03*
X368300Y330200D02*
D03*
D27*
X279400Y863600D02*
D03*
Y889000D02*
D03*
X381000Y673100D02*
D03*
Y647700D02*
D03*
X533400Y736600D02*
D03*
X762000Y546100D02*
D03*
Y419100D02*
D03*
Y482600D02*
D03*
X279400Y533400D02*
D03*
Y508000D02*
D03*
X520700Y362000D02*
D03*
X711200Y508000D02*
D03*
Y482600D02*
D03*
X368300Y279400D02*
D03*
Y304800D02*
D03*
D28*
X330200Y723900D02*
D03*
X342900Y736600D02*
D03*
X482600D02*
D03*
X495300Y749300D02*
D03*
X482600Y647700D02*
D03*
X495300Y660400D02*
D03*
X596900Y647700D02*
D03*
X609600Y660400D02*
D03*
X647700Y647700D02*
D03*
X660400Y660400D02*
D03*
X647700Y876300D02*
D03*
X660400Y889000D02*
D03*
X596900Y876300D02*
D03*
X609600Y889000D02*
D03*
X647700Y292100D02*
D03*
X635000Y279400D02*
D03*
X647700Y527100D02*
D03*
X635000Y514400D02*
D03*
X584200Y292100D02*
D03*
X571500Y279400D02*
D03*
X596900Y527100D02*
D03*
X584200Y514400D02*
D03*
X469900Y298500D02*
D03*
X457200Y285800D02*
D03*
X469900Y387400D02*
D03*
X457200Y374700D02*
D03*
X342900Y381000D02*
D03*
X330200Y368300D02*
D03*
D29*
Y749300D02*
D03*
X482600Y762000D02*
D03*
Y673100D02*
D03*
X596900D02*
D03*
X647700D02*
D03*
Y901700D02*
D03*
X596900D02*
D03*
X635000Y304800D02*
D03*
Y539800D02*
D03*
X571500Y304800D02*
D03*
X584200Y539800D02*
D03*
X457200Y311200D02*
D03*
Y400100D02*
D03*
X330200Y393700D02*
D03*
D30*
X787400Y546100D02*
D03*
Y419100D02*
D03*
Y482600D02*
D03*
D31*
X361696Y780796D02*
D03*
X355092Y400092D02*
D03*
M02*
