G04*
G04 #@! TF.GenerationSoftware,Altium Limited,Altium Designer,23.11.1 (41)*
G04*
G04 Layer_Color=8421504*
%FSLAX44Y44*%
%MOMM*%
G71*
G04*
G04 #@! TF.SameCoordinates,AAF1C5A6-5E74-48D9-B26A-DA526AD567C4*
G04*
G04*
G04 #@! TF.FilePolarity,Positive*
G04*
G01*
G75*
%ADD13R,1.4500X1.0500*%
%ADD14R,1.0500X1.4500*%
D13*
X279400Y660400D02*
D03*
Y641900D02*
D03*
Y745850D02*
D03*
Y727350D02*
D03*
X330200Y660400D02*
D03*
Y641900D02*
D03*
X381000Y800100D02*
D03*
Y781600D02*
D03*
X330200Y898250D02*
D03*
Y879750D02*
D03*
X381000Y898250D02*
D03*
Y879750D02*
D03*
X431800Y898250D02*
D03*
Y879750D02*
D03*
X482600Y898250D02*
D03*
Y879750D02*
D03*
X533400Y898250D02*
D03*
Y879750D02*
D03*
Y517850D02*
D03*
Y536350D02*
D03*
X482600Y517850D02*
D03*
Y536350D02*
D03*
X317500Y282850D02*
D03*
Y301350D02*
D03*
X431800Y517850D02*
D03*
Y536350D02*
D03*
X279400Y282850D02*
D03*
Y301350D02*
D03*
X368300Y413300D02*
D03*
Y431800D02*
D03*
X381000Y517850D02*
D03*
Y536350D02*
D03*
X279400Y359050D02*
D03*
Y377550D02*
D03*
X342900Y511450D02*
D03*
Y529950D02*
D03*
D14*
X428350Y660400D02*
D03*
X409850D02*
D03*
X437600Y711200D02*
D03*
X419100D02*
D03*
X347850Y825500D02*
D03*
X329350D02*
D03*
X449450Y762000D02*
D03*
X430950D02*
D03*
X449450Y812800D02*
D03*
X430950D02*
D03*
X495300Y825500D02*
D03*
X476800D02*
D03*
X542650D02*
D03*
X524150D02*
D03*
X555350Y660400D02*
D03*
X536850D02*
D03*
X511450Y279400D02*
D03*
X529950D02*
D03*
X508000Y463600D02*
D03*
X526500D02*
D03*
X397150Y342900D02*
D03*
X415650D02*
D03*
X392850Y292100D02*
D03*
X411350D02*
D03*
X447950Y457200D02*
D03*
X466450D02*
D03*
X405550Y393700D02*
D03*
X424050D02*
D03*
X397150Y457200D02*
D03*
X415650D02*
D03*
X320950D02*
D03*
X339450D02*
D03*
M02*
