M48
;Layer_Color=9474304
;FILE_FORMAT=4:4
METRIC,LZ
;TYPE=PLATED
T01F00S00C0.7112
T02F00S00C0.7620
T03F00S00C0.8000
T04F00S00C1.0000
%
T01
X00355092Y00400092
X00361696Y00780796
T02
X003683Y002794
Y003048
Y003302
X005207Y00362
Y003874
X007112Y004572
Y004826
Y00508
X00762Y004826
X007874
Y005461
X00762
Y004191
X007874
X005334Y007366
Y00762
X00381Y006985
Y006731
Y006477
X002794Y005334
Y00508
Y004826
Y008382
Y008636
Y00889
T03
X003302Y003683
Y003937
X003429Y00381
X004572Y003747
X004699Y003874
X004572Y003112
X004699Y002985
X004572Y002858
X005715Y002794
Y003048
X005842Y002921
X00635Y003048
X006477Y002921
X00635Y002794
Y005144
Y005398
X006477Y005271
X005969
X005842Y005398
Y005144
X005969Y006477
X006096Y006604
X005969Y006731
X006477
Y006477
X006604Y006604
X004953
X004826Y006477
Y006731
Y007366
X004953Y007493
X004826Y00762
X004572Y004001
X003302Y007239
X003429Y007366
X003302Y007493
X005969Y008763
X006096Y00889
X005969Y009017
X006477
Y008763
X006604Y00889
T04
X005715Y003684
X006096
X006477
Y004572
X006096
X005715
X005842Y007366
X006223
X006604
Y008254
X006223
X005842
M30
