G04*
G04 #@! TF.GenerationSoftware,Altium Limited,Altium Designer,23.11.1 (41)*
G04*
G04 Layer_Color=65535*
%FSLAX44Y44*%
%MOMM*%
G71*
G04*
G04 #@! TF.SameCoordinates,1A69B1BA-F8A6-4B25-9280-10EF192BA1B0*
G04*
G04*
G04 #@! TF.FilePolarity,Positive*
G04*
G01*
G75*
%ADD10C,0.2500*%
%ADD11C,0.2000*%
%ADD12C,0.2540*%
D10*
X331450Y766100D02*
G03*
X331450Y766100I-1250J0D01*
G01*
X483850Y778800D02*
G03*
X483850Y778800I-1250J0D01*
G01*
Y689900D02*
G03*
X483850Y689900I-1250J0D01*
G01*
X598150D02*
G03*
X598150Y689900I-1250J0D01*
G01*
X648950D02*
G03*
X648950Y689900I-1250J0D01*
G01*
Y918500D02*
G03*
X648950Y918500I-1250J0D01*
G01*
X598150D02*
G03*
X598150Y918500I-1250J0D01*
G01*
X636250Y321600D02*
G03*
X636250Y321600I-1250J0D01*
G01*
Y556600D02*
G03*
X636250Y556600I-1250J0D01*
G01*
X572750Y321600D02*
G03*
X572750Y321600I-1250J0D01*
G01*
X585450Y556600D02*
G03*
X585450Y556600I-1250J0D01*
G01*
X458450Y328000D02*
G03*
X458450Y328000I-1250J0D01*
G01*
Y416900D02*
G03*
X458450Y416900I-1250J0D01*
G01*
X331450Y410500D02*
G03*
X331450Y410500I-1250J0D01*
G01*
D11*
X316849Y717261D02*
G03*
X316845Y755937I13352J19339D01*
G01*
X469249Y729961D02*
G03*
X469245Y768637I13352J19339D01*
G01*
X469249Y641061D02*
G03*
X469245Y679737I13352J19339D01*
G01*
X583549Y641061D02*
G03*
X583545Y679737I13352J19339D01*
G01*
X634348Y641061D02*
G03*
X634345Y679737I13352J19339D01*
G01*
X634348Y869661D02*
G03*
X634345Y908337I13352J19339D01*
G01*
X583549Y869661D02*
G03*
X583545Y908337I13352J19339D01*
G01*
X621648Y272761D02*
G03*
X621645Y311437I13352J19339D01*
G01*
X621648Y507761D02*
G03*
X621645Y546436I13352J19339D01*
G01*
X558148Y272761D02*
G03*
X558145Y311437I13352J19339D01*
G01*
X570849Y507761D02*
G03*
X570845Y546436I13352J19339D01*
G01*
X443848Y279161D02*
G03*
X443845Y317836I13352J19339D01*
G01*
X443848Y368061D02*
G03*
X443845Y406736I13352J19339D01*
G01*
X316849Y361661D02*
G03*
X316845Y400337I13352J19339D01*
G01*
X316850Y717263D02*
Y755937D01*
X469250Y729964D02*
Y768636D01*
Y641064D02*
Y679736D01*
X583550Y641064D02*
Y679736D01*
X634350Y641064D02*
Y679736D01*
X570200Y755000D02*
Y807000D01*
X598200D01*
Y755000D02*
Y807000D01*
X570200Y755000D02*
X598200D01*
X584200Y748350D02*
Y755000D01*
Y807000D02*
Y813650D01*
X570900Y768000D02*
X597500D01*
X646400Y755000D02*
Y807000D01*
X674400D01*
Y755000D02*
Y807000D01*
X646400Y755000D02*
X674400D01*
X660400Y748350D02*
Y755000D01*
Y807000D02*
Y813650D01*
X647100Y768000D02*
X673700D01*
X608300Y755000D02*
Y807000D01*
X636300D01*
Y755000D02*
Y807000D01*
X608300Y755000D02*
X636300D01*
X622300Y748350D02*
Y755000D01*
Y807000D02*
Y813650D01*
X609000Y768000D02*
X635600D01*
X634350Y869663D02*
Y908336D01*
X583550Y869663D02*
Y908336D01*
X285650Y650150D02*
Y652150D01*
X273150Y650150D02*
Y652150D01*
X285650Y735600D02*
Y737600D01*
X273150Y735600D02*
Y737600D01*
X336450Y650150D02*
Y652150D01*
X323950Y650150D02*
Y652150D01*
X418100Y654150D02*
X420100D01*
X418100Y666650D02*
X420100D01*
X427350Y704950D02*
X429350D01*
X427350Y717450D02*
X429350D01*
X387250Y789850D02*
Y791850D01*
X374750Y789850D02*
Y791850D01*
X337600Y819250D02*
X339600D01*
X337600Y831750D02*
X339600D01*
X336450Y888000D02*
Y890000D01*
X323950Y888000D02*
Y890000D01*
X439200Y755750D02*
X441200D01*
X439200Y768250D02*
X441200D01*
X439200Y806550D02*
X441200D01*
X439200Y819050D02*
X441200D01*
X387250Y888000D02*
Y890000D01*
X374750Y888000D02*
Y890000D01*
X438050Y888000D02*
Y890000D01*
X425550Y888000D02*
Y890000D01*
X485050Y819250D02*
X487050D01*
X485050Y831750D02*
X487050D01*
X532400Y819250D02*
X534400D01*
X532400Y831750D02*
X534400D01*
X488850Y888000D02*
Y890000D01*
X476350Y888000D02*
Y890000D01*
X545100Y654150D02*
X547100D01*
X545100Y666650D02*
X547100D01*
X539650Y888000D02*
Y890000D01*
X527150Y888000D02*
Y890000D01*
X519700Y285650D02*
X521700D01*
X519700Y273150D02*
X521700D01*
X527150Y526100D02*
Y528100D01*
X539650Y526100D02*
Y528100D01*
X516250Y469850D02*
X518250D01*
X516250Y457350D02*
X518250D01*
X405400Y349150D02*
X407400D01*
X405400Y336650D02*
X407400D01*
X476350Y526100D02*
Y528100D01*
X488850Y526100D02*
Y528100D01*
X311250Y291100D02*
Y293100D01*
X323750Y291100D02*
Y293100D01*
X425550Y526100D02*
Y528100D01*
X438050Y526100D02*
Y528100D01*
X273150Y291100D02*
Y293100D01*
X285650Y291100D02*
Y293100D01*
X362050Y421550D02*
Y423550D01*
X374550Y421550D02*
Y423550D01*
X374750Y526100D02*
Y528100D01*
X387250Y526100D02*
Y528100D01*
X273150Y367300D02*
Y369300D01*
X285650Y367300D02*
Y369300D01*
X336650Y519700D02*
Y521700D01*
X349150Y519700D02*
Y521700D01*
X621650Y272764D02*
Y311437D01*
Y507763D02*
Y546436D01*
X558150Y272764D02*
Y311437D01*
X570850Y507763D02*
Y546436D01*
X443850Y279163D02*
Y317836D01*
Y368063D02*
Y406736D01*
X316850Y361664D02*
Y400336D01*
X634400Y399800D02*
X661000D01*
X647700Y438800D02*
Y445450D01*
Y380150D02*
Y386800D01*
X633700D02*
X661700D01*
Y438800D01*
X633700D02*
X661700D01*
X633700Y386800D02*
Y438800D01*
X596300Y399800D02*
X622900D01*
X609600Y438800D02*
Y445450D01*
Y380150D02*
Y386800D01*
X595600D02*
X623600D01*
Y438800D01*
X595600D02*
X623600D01*
X595600Y386800D02*
Y438800D01*
X558200Y399800D02*
X584800D01*
X571500Y438800D02*
Y445450D01*
Y380150D02*
Y386800D01*
X557500D02*
X585500D01*
Y438800D01*
X557500D02*
X585500D01*
X557500Y386800D02*
Y438800D01*
X401100Y298350D02*
X403100D01*
X401100Y285850D02*
X403100D01*
X456200Y463450D02*
X458200D01*
X456200Y450950D02*
X458200D01*
X413800Y399950D02*
X415800D01*
X413800Y387450D02*
X415800D01*
X405400Y463450D02*
X407400D01*
X405400Y450950D02*
X407400D01*
X329200Y463450D02*
X331200D01*
X329200Y450950D02*
X331200D01*
D12*
X292100Y825500D02*
Y901700D01*
X266700Y825500D02*
Y901700D01*
X292100D01*
X266700Y825500D02*
X292100D01*
X368300Y635000D02*
Y711200D01*
X393700Y635000D02*
Y711200D01*
X368300Y635000D02*
X393700D01*
X368300Y711200D02*
X393700D01*
X520700Y723900D02*
Y774700D01*
X546100Y723900D02*
Y774700D01*
X520700Y723900D02*
X546100D01*
X520700Y774700D02*
X546100D01*
X800100Y533400D02*
Y558800D01*
X749300Y533400D02*
Y558800D01*
Y533400D02*
X800100D01*
X749300Y558800D02*
X800100D01*
Y406400D02*
Y431800D01*
X749300Y406400D02*
Y431800D01*
Y406400D02*
X800100D01*
X749300Y431800D02*
X800100D01*
Y469900D02*
Y495300D01*
X749300Y469900D02*
Y495300D01*
Y469900D02*
X800100D01*
X749300Y495300D02*
X800100D01*
X266700Y469900D02*
X292100D01*
X266700Y546100D02*
X292100D01*
X266700Y469900D02*
Y546100D01*
X292100Y469900D02*
Y546100D01*
X508000Y400100D02*
X533400D01*
X508000Y349300D02*
X533400D01*
Y400100D01*
X508000Y349300D02*
Y400100D01*
X698500Y444500D02*
X723900D01*
X698500Y520700D02*
X723900D01*
X698500Y444500D02*
Y520700D01*
X723900Y444500D02*
Y520700D01*
X355600Y342900D02*
X381000D01*
X355600Y266700D02*
X381000D01*
Y342900D01*
X355600Y266700D02*
Y342900D01*
X531368Y678180D02*
Y693415D01*
X538985D01*
X541525Y690876D01*
Y685798D01*
X538985Y683258D01*
X531368D01*
X536446D02*
X541525Y678180D01*
X556760D02*
X546603D01*
X556760Y688337D01*
Y690876D01*
X554221Y693415D01*
X549142D01*
X546603Y690876D01*
X571995Y693415D02*
X561838D01*
Y685798D01*
X566917Y688337D01*
X569456D01*
X571995Y685798D01*
Y680719D01*
X569456Y678180D01*
X564377D01*
X561838Y680719D01*
X525780Y913892D02*
Y929127D01*
X533397D01*
X535937Y926588D01*
Y921509D01*
X533397Y918970D01*
X525780D01*
X530858D02*
X535937Y913892D01*
X551172D02*
X541015D01*
X551172Y924049D01*
Y926588D01*
X548633Y929127D01*
X543554D01*
X541015Y926588D01*
X563868Y913892D02*
Y929127D01*
X556250Y921509D01*
X566407D01*
X518668Y843280D02*
Y858515D01*
X526286D01*
X528825Y855976D01*
Y850898D01*
X526286Y848358D01*
X518668D01*
X523746D02*
X528825Y843280D01*
X544060D02*
X533903D01*
X544060Y853437D01*
Y855976D01*
X541521Y858515D01*
X536442D01*
X533903Y855976D01*
X549138D02*
X551677Y858515D01*
X556756D01*
X559295Y855976D01*
Y853437D01*
X556756Y850898D01*
X554216D01*
X556756D01*
X559295Y848358D01*
Y845819D01*
X556756Y843280D01*
X551677D01*
X549138Y845819D01*
X413766Y728980D02*
Y744215D01*
X421384D01*
X423923Y741676D01*
Y736598D01*
X421384Y734058D01*
X413766D01*
X418844D02*
X423923Y728980D01*
X439158D02*
X429001D01*
X439158Y739137D01*
Y741676D01*
X436619Y744215D01*
X431540D01*
X429001Y741676D01*
X454393Y728980D02*
X444236D01*
X454393Y739137D01*
Y741676D01*
X451854Y744215D01*
X446775D01*
X444236Y741676D01*
X474980Y913892D02*
Y929127D01*
X482598D01*
X485137Y926588D01*
Y921509D01*
X482598Y918970D01*
X474980D01*
X480058D02*
X485137Y913892D01*
X500372D02*
X490215D01*
X500372Y924049D01*
Y926588D01*
X497833Y929127D01*
X492754D01*
X490215Y926588D01*
X505450Y913892D02*
X510528D01*
X507989D01*
Y929127D01*
X505450Y926588D01*
X322580Y675894D02*
Y691129D01*
X330197D01*
X332737Y688590D01*
Y683512D01*
X330197Y680972D01*
X322580D01*
X327658D02*
X332737Y675894D01*
X347972D02*
X337815D01*
X347972Y686051D01*
Y688590D01*
X345433Y691129D01*
X340354D01*
X337815Y688590D01*
X353050D02*
X355589Y691129D01*
X360668D01*
X363207Y688590D01*
Y678433D01*
X360668Y675894D01*
X355589D01*
X353050Y678433D01*
Y688590D01*
X424180Y913892D02*
Y929127D01*
X431797D01*
X434337Y926588D01*
Y921509D01*
X431797Y918970D01*
X424180D01*
X429258D02*
X434337Y913892D01*
X439415D02*
X444493D01*
X441954D01*
Y929127D01*
X439415Y926588D01*
X452111Y916431D02*
X454650Y913892D01*
X459729D01*
X462268Y916431D01*
Y926588D01*
X459729Y929127D01*
X454650D01*
X452111Y926588D01*
Y924049D01*
X454650Y921509D01*
X462268D01*
X271780Y675894D02*
Y691129D01*
X279398D01*
X281937Y688590D01*
Y683512D01*
X279398Y680972D01*
X271780D01*
X276858D02*
X281937Y675894D01*
X287015D02*
X292093D01*
X289554D01*
Y691129D01*
X287015Y688590D01*
X299711D02*
X302250Y691129D01*
X307328D01*
X309868Y688590D01*
Y686051D01*
X307328Y683512D01*
X309868Y680972D01*
Y678433D01*
X307328Y675894D01*
X302250D01*
X299711Y678433D01*
Y680972D01*
X302250Y683512D01*
X299711Y686051D01*
Y688590D01*
X302250Y683512D02*
X307328D01*
X373380Y815594D02*
Y830829D01*
X380998D01*
X383537Y828290D01*
Y823212D01*
X380998Y820672D01*
X373380D01*
X378458D02*
X383537Y815594D01*
X388615D02*
X393693D01*
X391154D01*
Y830829D01*
X388615Y828290D01*
X401311Y830829D02*
X411468D01*
Y828290D01*
X401311Y818133D01*
Y815594D01*
X373380Y913892D02*
Y929127D01*
X380998D01*
X383537Y926588D01*
Y921509D01*
X380998Y918970D01*
X373380D01*
X378458D02*
X383537Y913892D01*
X388615D02*
X393693D01*
X391154D01*
Y929127D01*
X388615Y926588D01*
X411468Y929127D02*
X406389Y926588D01*
X401311Y921509D01*
Y916431D01*
X403850Y913892D01*
X408928D01*
X411468Y916431D01*
Y918970D01*
X408928Y921509D01*
X401311D01*
X271780Y761492D02*
Y776727D01*
X279398D01*
X281937Y774188D01*
Y769109D01*
X279398Y766570D01*
X271780D01*
X276858D02*
X281937Y761492D01*
X287015D02*
X292093D01*
X289554D01*
Y776727D01*
X287015Y774188D01*
X309868Y776727D02*
X299711D01*
Y769109D01*
X304789Y771649D01*
X307328D01*
X309868Y769109D01*
Y764031D01*
X307328Y761492D01*
X302250D01*
X299711Y764031D01*
X322580Y913892D02*
Y929127D01*
X330197D01*
X332737Y926588D01*
Y921509D01*
X330197Y918970D01*
X322580D01*
X327658D02*
X332737Y913892D01*
X337815D02*
X342893D01*
X340354D01*
Y929127D01*
X337815Y926588D01*
X358129Y913892D02*
Y929127D01*
X350511Y921509D01*
X360668D01*
X505968Y297180D02*
Y312415D01*
X513586D01*
X516125Y309876D01*
Y304797D01*
X513586Y302258D01*
X505968D01*
X511046D02*
X516125Y297180D01*
X521203D02*
X526281D01*
X523742D01*
Y312415D01*
X521203Y309876D01*
X544056Y297180D02*
X533899D01*
X544056Y307337D01*
Y309876D01*
X541516Y312415D01*
X536438D01*
X533899Y309876D01*
X525780Y551992D02*
Y567227D01*
X533397D01*
X535937Y564688D01*
Y559609D01*
X533397Y557070D01*
X525780D01*
X530858D02*
X535937Y551992D01*
X541015D02*
X546093D01*
X543554D01*
Y567227D01*
X541015Y564688D01*
X553711Y551992D02*
X558789D01*
X556250D01*
Y567227D01*
X553711Y564688D01*
X502666Y481380D02*
Y496615D01*
X510284D01*
X512823Y494076D01*
Y488997D01*
X510284Y486458D01*
X502666D01*
X507744D02*
X512823Y481380D01*
X517901D02*
X522979D01*
X520440D01*
Y496615D01*
X517901Y494076D01*
X530597D02*
X533136Y496615D01*
X538214D01*
X540754Y494076D01*
Y483919D01*
X538214Y481380D01*
X533136D01*
X530597Y483919D01*
Y494076D01*
X391668Y360680D02*
Y375915D01*
X399286D01*
X401825Y373376D01*
Y368298D01*
X399286Y365758D01*
X391668D01*
X396746D02*
X401825Y360680D01*
X406903Y363219D02*
X409442Y360680D01*
X414521D01*
X417060Y363219D01*
Y373376D01*
X414521Y375915D01*
X409442D01*
X406903Y373376D01*
Y370837D01*
X409442Y368298D01*
X417060D01*
X474980Y551992D02*
Y567227D01*
X482598D01*
X485137Y564688D01*
Y559609D01*
X482598Y557070D01*
X474980D01*
X480058D02*
X485137Y551992D01*
X490215Y564688D02*
X492754Y567227D01*
X497833D01*
X500372Y564688D01*
Y562149D01*
X497833Y559609D01*
X500372Y557070D01*
Y554531D01*
X497833Y551992D01*
X492754D01*
X490215Y554531D01*
Y557070D01*
X492754Y559609D01*
X490215Y562149D01*
Y564688D01*
X492754Y559609D02*
X497833D01*
X309880Y316992D02*
Y332227D01*
X317498D01*
X320037Y329688D01*
Y324609D01*
X317498Y322070D01*
X309880D01*
X314958D02*
X320037Y316992D01*
X325115Y332227D02*
X335272D01*
Y329688D01*
X325115Y319531D01*
Y316992D01*
X424180Y551992D02*
Y567227D01*
X431797D01*
X434337Y564688D01*
Y559609D01*
X431797Y557070D01*
X424180D01*
X429258D02*
X434337Y551992D01*
X449572Y567227D02*
X444493Y564688D01*
X439415Y559609D01*
Y554531D01*
X441954Y551992D01*
X447033D01*
X449572Y554531D01*
Y557070D01*
X447033Y559609D01*
X439415D01*
X271780Y316992D02*
Y332227D01*
X279398D01*
X281937Y329688D01*
Y324609D01*
X279398Y322070D01*
X271780D01*
X276858D02*
X281937Y316992D01*
X297172Y332227D02*
X287015D01*
Y324609D01*
X292093Y327149D01*
X294633D01*
X297172Y324609D01*
Y319531D01*
X294633Y316992D01*
X289554D01*
X287015Y319531D01*
X360680Y447294D02*
Y462529D01*
X368298D01*
X370837Y459990D01*
Y454911D01*
X368298Y452372D01*
X360680D01*
X365758D02*
X370837Y447294D01*
X383533D02*
Y462529D01*
X375915Y454911D01*
X386072D01*
X373380Y551992D02*
Y567227D01*
X380998D01*
X383537Y564688D01*
Y559609D01*
X380998Y557070D01*
X373380D01*
X378458D02*
X383537Y551992D01*
X388615Y564688D02*
X391154Y567227D01*
X396233D01*
X398772Y564688D01*
Y562149D01*
X396233Y559609D01*
X393693D01*
X396233D01*
X398772Y557070D01*
Y554531D01*
X396233Y551992D01*
X391154D01*
X388615Y554531D01*
X271780Y393192D02*
Y408427D01*
X279398D01*
X281937Y405888D01*
Y400810D01*
X279398Y398270D01*
X271780D01*
X276858D02*
X281937Y393192D01*
X297172D02*
X287015D01*
X297172Y403349D01*
Y405888D01*
X294633Y408427D01*
X289554D01*
X287015Y405888D01*
X335280Y545592D02*
Y560827D01*
X342897D01*
X345437Y558288D01*
Y553209D01*
X342897Y550670D01*
X335280D01*
X340358D02*
X345437Y545592D01*
X350515D02*
X355593D01*
X353054D01*
Y560827D01*
X350515Y558288D01*
X645919Y702563D02*
Y712720D01*
X643380Y715259D01*
X638301D01*
X635762Y712720D01*
Y702563D01*
X638301Y700024D01*
X643380D01*
X640840Y705102D02*
X645919Y700024D01*
X643380D02*
X645919Y702563D01*
X650997Y700024D02*
X656075D01*
X653536D01*
Y715259D01*
X650997Y712720D01*
X671311Y700024D02*
Y715259D01*
X663693Y707642D01*
X673850D01*
X645919Y931163D02*
Y941320D01*
X643380Y943859D01*
X638301D01*
X635762Y941320D01*
Y931163D01*
X638301Y928624D01*
X643380D01*
X640840Y933702D02*
X645919Y928624D01*
X643380D02*
X645919Y931163D01*
X650997Y928624D02*
X656075D01*
X653536D01*
Y943859D01*
X650997Y941320D01*
X663693D02*
X666232Y943859D01*
X671311D01*
X673850Y941320D01*
Y938781D01*
X671311Y936242D01*
X668771D01*
X671311D01*
X673850Y933702D01*
Y931163D01*
X671311Y928624D01*
X666232D01*
X663693Y931163D01*
X595119Y702563D02*
Y712720D01*
X592579Y715259D01*
X587501D01*
X584962Y712720D01*
Y702563D01*
X587501Y700024D01*
X592579D01*
X590040Y705102D02*
X595119Y700024D01*
X592579D02*
X595119Y702563D01*
X600197Y700024D02*
X605275D01*
X602736D01*
Y715259D01*
X600197Y712720D01*
X623050Y700024D02*
X612893D01*
X623050Y710181D01*
Y712720D01*
X620510Y715259D01*
X615432D01*
X612893Y712720D01*
X595119Y931163D02*
Y941320D01*
X592579Y943859D01*
X587501D01*
X584962Y941320D01*
Y931163D01*
X587501Y928624D01*
X592579D01*
X590040Y933702D02*
X595119Y928624D01*
X592579D02*
X595119Y931163D01*
X600197Y928624D02*
X605275D01*
X602736D01*
Y943859D01*
X600197Y941320D01*
X612893Y928624D02*
X617971D01*
X615432D01*
Y943859D01*
X612893Y941320D01*
X480819Y702563D02*
Y712720D01*
X478279Y715259D01*
X473201D01*
X470662Y712720D01*
Y702563D01*
X473201Y700024D01*
X478279D01*
X475740Y705102D02*
X480819Y700024D01*
X478279D02*
X480819Y702563D01*
X485897Y700024D02*
X490975D01*
X488436D01*
Y715259D01*
X485897Y712720D01*
X498593D02*
X501132Y715259D01*
X506211D01*
X508750Y712720D01*
Y702563D01*
X506211Y700024D01*
X501132D01*
X498593Y702563D01*
Y712720D01*
X480819Y791463D02*
Y801620D01*
X478279Y804159D01*
X473201D01*
X470662Y801620D01*
Y791463D01*
X473201Y788924D01*
X478279D01*
X475740Y794002D02*
X480819Y788924D01*
X478279D02*
X480819Y791463D01*
X485897D02*
X488436Y788924D01*
X493515D01*
X496054Y791463D01*
Y801620D01*
X493515Y804159D01*
X488436D01*
X485897Y801620D01*
Y799081D01*
X488436Y796542D01*
X496054D01*
X328419Y778763D02*
Y788920D01*
X325880Y791459D01*
X320801D01*
X318262Y788920D01*
Y778763D01*
X320801Y776224D01*
X325880D01*
X323340Y781302D02*
X328419Y776224D01*
X325880D02*
X328419Y778763D01*
X333497Y788920D02*
X336036Y791459D01*
X341115D01*
X343654Y788920D01*
Y786381D01*
X341115Y783841D01*
X343654Y781302D01*
Y778763D01*
X341115Y776224D01*
X336036D01*
X333497Y778763D01*
Y781302D01*
X336036Y783841D01*
X333497Y786381D01*
Y788920D01*
X336036Y783841D02*
X341115D01*
X633219Y334263D02*
Y344420D01*
X630680Y346959D01*
X625601D01*
X623062Y344420D01*
Y334263D01*
X625601Y331724D01*
X630680D01*
X628140Y336802D02*
X633219Y331724D01*
X630680D02*
X633219Y334263D01*
X638297Y346959D02*
X648454D01*
Y344420D01*
X638297Y334263D01*
Y331724D01*
X633219Y569263D02*
Y579420D01*
X630680Y581959D01*
X625601D01*
X623062Y579420D01*
Y569263D01*
X625601Y566724D01*
X630680D01*
X628140Y571802D02*
X633219Y566724D01*
X630680D02*
X633219Y569263D01*
X648454Y581959D02*
X643375Y579420D01*
X638297Y574341D01*
Y569263D01*
X640836Y566724D01*
X645915D01*
X648454Y569263D01*
Y571802D01*
X645915Y574341D01*
X638297D01*
X569719Y334263D02*
Y344420D01*
X567179Y346959D01*
X562101D01*
X559562Y344420D01*
Y334263D01*
X562101Y331724D01*
X567179D01*
X564640Y336802D02*
X569719Y331724D01*
X567179D02*
X569719Y334263D01*
X584954Y346959D02*
X574797D01*
Y339342D01*
X579875Y341881D01*
X582415D01*
X584954Y339342D01*
Y334263D01*
X582415Y331724D01*
X577336D01*
X574797Y334263D01*
X582419Y569263D02*
Y579420D01*
X579879Y581959D01*
X574801D01*
X572262Y579420D01*
Y569263D01*
X574801Y566724D01*
X579879D01*
X577340Y571802D02*
X582419Y566724D01*
X579879D02*
X582419Y569263D01*
X595115Y566724D02*
Y581959D01*
X587497Y574341D01*
X597654D01*
X455419Y340663D02*
Y350820D01*
X452879Y353359D01*
X447801D01*
X445262Y350820D01*
Y340663D01*
X447801Y338124D01*
X452879D01*
X450340Y343202D02*
X455419Y338124D01*
X452879D02*
X455419Y340663D01*
X460497Y350820D02*
X463036Y353359D01*
X468115D01*
X470654Y350820D01*
Y348280D01*
X468115Y345741D01*
X465575D01*
X468115D01*
X470654Y343202D01*
Y340663D01*
X468115Y338124D01*
X463036D01*
X460497Y340663D01*
X455419Y429563D02*
Y439720D01*
X452879Y442259D01*
X447801D01*
X445262Y439720D01*
Y429563D01*
X447801Y427024D01*
X452879D01*
X450340Y432102D02*
X455419Y427024D01*
X452879D02*
X455419Y429563D01*
X470654Y427024D02*
X460497D01*
X470654Y437180D01*
Y439720D01*
X468115Y442259D01*
X463036D01*
X460497Y439720D01*
X328419Y423163D02*
Y433320D01*
X325880Y435859D01*
X320801D01*
X318262Y433320D01*
Y423163D01*
X320801Y420624D01*
X325880D01*
X323340Y425702D02*
X328419Y420624D01*
X325880D02*
X328419Y423163D01*
X333497Y420624D02*
X338575D01*
X336036D01*
Y435859D01*
X333497Y433320D01*
X750570Y582925D02*
Y567690D01*
Y575308D01*
X760727D01*
Y582925D01*
Y567690D01*
X765805D02*
X770883D01*
X768344D01*
Y582925D01*
X765805Y580386D01*
X778501D02*
X781040Y582925D01*
X786118D01*
X788658Y580386D01*
Y570229D01*
X786118Y567690D01*
X781040D01*
X778501Y570229D01*
Y580386D01*
X750570Y455925D02*
Y440690D01*
Y448307D01*
X760727D01*
Y455925D01*
Y440690D01*
X765805Y443229D02*
X768344Y440690D01*
X773423D01*
X775962Y443229D01*
Y453386D01*
X773423Y455925D01*
X768344D01*
X765805Y453386D01*
Y450847D01*
X768344Y448307D01*
X775962D01*
X521970Y798825D02*
Y783590D01*
Y791208D01*
X532127D01*
Y798825D01*
Y783590D01*
X537205Y796286D02*
X539744Y798825D01*
X544823D01*
X547362Y796286D01*
Y793747D01*
X544823Y791208D01*
X547362Y788668D01*
Y786129D01*
X544823Y783590D01*
X539744D01*
X537205Y786129D01*
Y788668D01*
X539744Y791208D01*
X537205Y793747D01*
Y796286D01*
X539744Y791208D02*
X544823D01*
X750570Y519425D02*
Y504190D01*
Y511808D01*
X760727D01*
Y519425D01*
Y504190D01*
X765805Y519425D02*
X775962D01*
Y516886D01*
X765805Y506729D01*
Y504190D01*
X369570Y735325D02*
Y720090D01*
Y727708D01*
X379727D01*
Y735325D01*
Y720090D01*
X394962Y735325D02*
X389883Y732786D01*
X384805Y727708D01*
Y722629D01*
X387344Y720090D01*
X392423D01*
X394962Y722629D01*
Y725168D01*
X392423Y727708D01*
X384805D01*
X267970Y925825D02*
Y910590D01*
Y918207D01*
X278127D01*
Y925825D01*
Y910590D01*
X293362Y925825D02*
X283205D01*
Y918207D01*
X288283Y920747D01*
X290823D01*
X293362Y918207D01*
Y913129D01*
X290823Y910590D01*
X285744D01*
X283205Y913129D01*
X267970Y570225D02*
Y554990D01*
Y562607D01*
X278127D01*
Y570225D01*
Y554990D01*
X290823D02*
Y570225D01*
X283205Y562607D01*
X293362D01*
X509270Y424225D02*
Y408990D01*
Y416607D01*
X519427D01*
Y424225D01*
Y408990D01*
X524505Y421686D02*
X527044Y424225D01*
X532123D01*
X534662Y421686D01*
Y419146D01*
X532123Y416607D01*
X529583D01*
X532123D01*
X534662Y414068D01*
Y411529D01*
X532123Y408990D01*
X527044D01*
X524505Y411529D01*
X699770Y544825D02*
Y529590D01*
Y537207D01*
X709927D01*
Y544825D01*
Y529590D01*
X725162D02*
X715005D01*
X725162Y539747D01*
Y542286D01*
X722623Y544825D01*
X717544D01*
X715005Y542286D01*
X356870Y367025D02*
Y351790D01*
Y359408D01*
X367027D01*
Y367025D01*
Y351790D01*
X372105D02*
X377183D01*
X374644D01*
Y367025D01*
X372105Y364486D01*
X646938Y858007D02*
Y842772D01*
X654556D01*
X657095Y845311D01*
Y855468D01*
X654556Y858007D01*
X646938D01*
X672330D02*
X667251Y855468D01*
X662173Y850389D01*
Y845311D01*
X664712Y842772D01*
X669791D01*
X672330Y845311D01*
Y847850D01*
X669791Y850389D01*
X662173D01*
X608838Y858007D02*
Y842772D01*
X616455D01*
X618995Y845311D01*
Y855468D01*
X616455Y858007D01*
X608838D01*
X634230D02*
X624073D01*
Y850389D01*
X629151Y852929D01*
X631691D01*
X634230Y850389D01*
Y845311D01*
X631691Y842772D01*
X626612D01*
X624073Y845311D01*
X570738Y858007D02*
Y842772D01*
X578355D01*
X580895Y845311D01*
Y855468D01*
X578355Y858007D01*
X570738D01*
X593591Y842772D02*
Y858007D01*
X585973Y850389D01*
X596130D01*
X634238Y489757D02*
Y474522D01*
X641855D01*
X644395Y477061D01*
Y487218D01*
X641855Y489757D01*
X634238D01*
X649473Y487218D02*
X652012Y489757D01*
X657091D01*
X659630Y487218D01*
Y484678D01*
X657091Y482139D01*
X654551D01*
X657091D01*
X659630Y479600D01*
Y477061D01*
X657091Y474522D01*
X652012D01*
X649473Y477061D01*
X596138Y489757D02*
Y474522D01*
X603755D01*
X606295Y477061D01*
Y487218D01*
X603755Y489757D01*
X596138D01*
X621530Y474522D02*
X611373D01*
X621530Y484678D01*
Y487218D01*
X618991Y489757D01*
X613912D01*
X611373Y487218D01*
X558038Y489757D02*
Y474522D01*
X565656D01*
X568195Y477061D01*
Y487218D01*
X565656Y489757D01*
X558038D01*
X573273Y474522D02*
X578351D01*
X575812D01*
Y489757D01*
X573273Y487218D01*
X422145Y686050D02*
X419605Y688589D01*
X414527D01*
X411988Y686050D01*
Y675893D01*
X414527Y673354D01*
X419605D01*
X422145Y675893D01*
X427223Y673354D02*
X432301D01*
X429762D01*
Y688589D01*
X427223Y686050D01*
X439919D02*
X442458Y688589D01*
X447537D01*
X450076Y686050D01*
Y675893D01*
X447537Y673354D01*
X442458D01*
X439919Y675893D01*
Y686050D01*
X481581Y855976D02*
X479041Y858515D01*
X473963D01*
X471424Y855976D01*
Y845819D01*
X473963Y843280D01*
X479041D01*
X481581Y845819D01*
X486659D02*
X489198Y843280D01*
X494277D01*
X496816Y845819D01*
Y855976D01*
X494277Y858515D01*
X489198D01*
X486659Y855976D01*
Y853437D01*
X489198Y850898D01*
X496816D01*
X443227Y787650D02*
X440687Y790189D01*
X435609D01*
X433070Y787650D01*
Y777493D01*
X435609Y774954D01*
X440687D01*
X443227Y777493D01*
X448305Y787650D02*
X450844Y790189D01*
X455923D01*
X458462Y787650D01*
Y785111D01*
X455923Y782571D01*
X458462Y780032D01*
Y777493D01*
X455923Y774954D01*
X450844D01*
X448305Y777493D01*
Y780032D01*
X450844Y782571D01*
X448305Y785111D01*
Y787650D01*
X450844Y782571D02*
X455923D01*
X443227Y838450D02*
X440687Y840989D01*
X435609D01*
X433070Y838450D01*
Y828293D01*
X435609Y825754D01*
X440687D01*
X443227Y828293D01*
X448305Y840989D02*
X458462D01*
Y838450D01*
X448305Y828293D01*
Y825754D01*
X341627Y851150D02*
X339087Y853689D01*
X334009D01*
X331470Y851150D01*
Y840993D01*
X334009Y838454D01*
X339087D01*
X341627Y840993D01*
X356862Y853689D02*
X351783Y851150D01*
X346705Y846071D01*
Y840993D01*
X349244Y838454D01*
X354323D01*
X356862Y840993D01*
Y843532D01*
X354323Y846071D01*
X346705D01*
X405127Y317750D02*
X402588Y320289D01*
X397509D01*
X394970Y317750D01*
Y307593D01*
X397509Y305054D01*
X402588D01*
X405127Y307593D01*
X420362Y320289D02*
X410205D01*
Y312672D01*
X415283Y315211D01*
X417823D01*
X420362Y312672D01*
Y307593D01*
X417823Y305054D01*
X412744D01*
X410205Y307593D01*
X452625Y487676D02*
X450085Y490215D01*
X445007D01*
X442468Y487676D01*
Y477519D01*
X445007Y474980D01*
X450085D01*
X452625Y477519D01*
X465321Y474980D02*
Y490215D01*
X457703Y482598D01*
X467860D01*
X417827Y419350D02*
X415288Y421889D01*
X410209D01*
X407670Y419350D01*
Y409193D01*
X410209Y406654D01*
X415288D01*
X417827Y409193D01*
X422905Y419350D02*
X425444Y421889D01*
X430523D01*
X433062Y419350D01*
Y416811D01*
X430523Y414272D01*
X427983D01*
X430523D01*
X433062Y411732D01*
Y409193D01*
X430523Y406654D01*
X425444D01*
X422905Y409193D01*
X401825Y487676D02*
X399286Y490215D01*
X394207D01*
X391668Y487676D01*
Y477519D01*
X394207Y474980D01*
X399286D01*
X401825Y477519D01*
X417060Y474980D02*
X406903D01*
X417060Y485137D01*
Y487676D01*
X414521Y490215D01*
X409442D01*
X406903Y487676D01*
X333245Y482850D02*
X330705Y485389D01*
X325627D01*
X323088Y482850D01*
Y472693D01*
X325627Y470154D01*
X330705D01*
X333245Y472693D01*
X338323Y470154D02*
X343401D01*
X340862D01*
Y485389D01*
X338323Y482850D01*
M02*
